<?xml version="1.0" encoding="utf-8"?>
<!-- Generator: Adobe Illustrator 18.0.0, SVG Export Plug-In . SVG Version: 6.00 Build 0)  -->
<!DOCTYPE svg PUBLIC "-//W3C//DTD SVG 1.1//EN" "http://www.w3.org/Graphics/SVG/1.1/DTD/svg11.dtd">
<svg version="1.1" id="Layer_1" xmlns="http://www.w3.org/2000/svg" xmlns:xlink="http://www.w3.org/1999/xlink" x="0px" y="0px"
	 viewBox="0 0 1000 1000" enable-background="new 0 0 1000 1000" xml:space="preserve">
<rect y="0" fill="#091B33" width="1000" height="1000"/>
<g>
	<path fill="#01F902" d="M610.5,375H449.7c-8,0-14.5,6.5-14.5,14.5V551c0,2.5-1,5-2.8,6.8l-4.2,4.2c-1.8,1.8-4.3,2.8-6.8,2.8h-40.3
		c-3.4,0-6.1,2.7-6.1,6.1v48c0,3.4,2.7,6.1,6.1,6.1h48c3.4,0,6.1-2.7,6.1-6.1v-40.3c0-2.5,1-5,2.8-6.8l4.2-4.2
		c1.8-1.8,4.3-2.8,6.8-2.8h161.5c8,0,14.5-6.5,14.5-14.5V389.5C625,381.5,618.5,375,610.5,375 M592.6,532.4h-125v-125h125V532.4z"/>
	<rect x="495.4" y="435.2" fill="#FFFFFF" width="69.4" height="69.4"/>
</g>
<rect y="0" fill="none" width="1000" height="1000"/>
</svg>
